<mxfile host="Electron" agent="Mozilla/5.0 (X11; Linux x86_64) AppleWebKit/537.36 (KHTML, like Gecko) draw.io/26.2.2 Chrome/134.0.6998.178 Electron/35.1.2 Safari/537.36" version="26.2.2">
  <diagram name="Страница — 1" id="mdIsYkr4_2mxejDF0Ao2">
    <mxGraphModel dx="1532" dy="581" grid="1" gridSize="10" guides="1" tooltips="1" connect="1" arrows="1" fold="1" page="1" pageScale="1" pageWidth="827" pageHeight="1169" math="0" shadow="0">
      <root>
        <mxCell id="0" />
        <mxCell id="1" parent="0" />
        <mxCell id="QIReDwz2trPRNbANh7-z-56" value="session" style="group;align=left;fontStyle=1;fontSize=40;" parent="1" vertex="1" connectable="0">
          <mxGeometry x="50" y="110" width="790" height="743" as="geometry" />
        </mxCell>
        <mxCell id="QIReDwz2trPRNbANh7-z-1" value="&lt;pre style=&quot;line-height: 100%;&quot;&gt;Tools&lt;/pre&gt;" style="rounded=1;whiteSpace=wrap;html=1;align=left;" parent="QIReDwz2trPRNbANh7-z-56" vertex="1">
          <mxGeometry y="261.054054054054" width="190" height="120.4864864864865" as="geometry" />
        </mxCell>
        <mxCell id="QIReDwz2trPRNbANh7-z-6" style="edgeStyle=orthogonalEdgeStyle;rounded=0;orthogonalLoop=1;jettySize=auto;html=1;" parent="QIReDwz2trPRNbANh7-z-56" source="QIReDwz2trPRNbANh7-z-2" target="QIReDwz2trPRNbANh7-z-4" edge="1">
          <mxGeometry relative="1" as="geometry" />
        </mxCell>
        <mxCell id="QIReDwz2trPRNbANh7-z-2" value="Agenda&lt;div&gt;(Problem+Expected result)&lt;/div&gt;" style="ellipse;whiteSpace=wrap;html=1;" parent="QIReDwz2trPRNbANh7-z-56" vertex="1">
          <mxGeometry x="370" width="160" height="80.32432432432432" as="geometry" />
        </mxCell>
        <mxCell id="QIReDwz2trPRNbANh7-z-3" value="Define the problem prompt" style="rounded=0;whiteSpace=wrap;html=1;" parent="QIReDwz2trPRNbANh7-z-56" vertex="1">
          <mxGeometry x="670" y="100.40540540540542" width="120" height="60.24324324324325" as="geometry" />
        </mxCell>
        <mxCell id="QIReDwz2trPRNbANh7-z-11" style="edgeStyle=orthogonalEdgeStyle;rounded=0;orthogonalLoop=1;jettySize=auto;html=1;entryX=0.5;entryY=0;entryDx=0;entryDy=0;" parent="QIReDwz2trPRNbANh7-z-56" source="QIReDwz2trPRNbANh7-z-4" target="QIReDwz2trPRNbANh7-z-7" edge="1">
          <mxGeometry relative="1" as="geometry" />
        </mxCell>
        <mxCell id="QIReDwz2trPRNbANh7-z-4" value="Chairmen AI" style="ellipse;shape=cloud;whiteSpace=wrap;html=1;" parent="QIReDwz2trPRNbANh7-z-56" vertex="1">
          <mxGeometry x="390" y="100.40540540540542" width="120" height="80.32432432432432" as="geometry" />
        </mxCell>
        <mxCell id="QIReDwz2trPRNbANh7-z-5" style="edgeStyle=orthogonalEdgeStyle;rounded=0;orthogonalLoop=1;jettySize=auto;html=1;entryX=1;entryY=0.5;entryDx=0;entryDy=0;entryPerimeter=0;" parent="QIReDwz2trPRNbANh7-z-56" source="QIReDwz2trPRNbANh7-z-3" target="QIReDwz2trPRNbANh7-z-4" edge="1">
          <mxGeometry relative="1" as="geometry" />
        </mxCell>
        <mxCell id="QIReDwz2trPRNbANh7-z-14" style="edgeStyle=orthogonalEdgeStyle;rounded=0;orthogonalLoop=1;jettySize=auto;html=1;" parent="QIReDwz2trPRNbANh7-z-56" source="QIReDwz2trPRNbANh7-z-7" target="QIReDwz2trPRNbANh7-z-13" edge="1">
          <mxGeometry relative="1" as="geometry" />
        </mxCell>
        <mxCell id="QIReDwz2trPRNbANh7-z-7" value="Problem definition" style="ellipse;whiteSpace=wrap;html=1;" parent="QIReDwz2trPRNbANh7-z-56" vertex="1">
          <mxGeometry x="390" y="200.81081081081084" width="120" height="80.32432432432432" as="geometry" />
        </mxCell>
        <mxCell id="QIReDwz2trPRNbANh7-z-9" value="" style="curved=1;endArrow=classic;html=1;rounded=0;" parent="QIReDwz2trPRNbANh7-z-56" source="QIReDwz2trPRNbANh7-z-4" target="QIReDwz2trPRNbANh7-z-4" edge="1">
          <mxGeometry width="50" height="50" relative="1" as="geometry">
            <mxPoint x="350" y="180.72972972972974" as="sourcePoint" />
            <mxPoint x="400" y="130.527027027027" as="targetPoint" />
            <Array as="points">
              <mxPoint x="400" y="180.72972972972974" />
              <mxPoint x="340" y="180.72972972972974" />
              <mxPoint x="350" y="90.36486486486487" />
            </Array>
          </mxGeometry>
        </mxCell>
        <mxCell id="QIReDwz2trPRNbANh7-z-10" value="n turns" style="edgeLabel;html=1;align=center;verticalAlign=middle;resizable=0;points=[];" parent="QIReDwz2trPRNbANh7-z-9" vertex="1" connectable="0">
          <mxGeometry x="0.0576" y="-1" relative="1" as="geometry">
            <mxPoint as="offset" />
          </mxGeometry>
        </mxCell>
        <mxCell id="QIReDwz2trPRNbANh7-z-15" style="edgeStyle=orthogonalEdgeStyle;rounded=0;orthogonalLoop=1;jettySize=auto;html=1;" parent="QIReDwz2trPRNbANh7-z-56" source="QIReDwz2trPRNbANh7-z-19" target="QIReDwz2trPRNbANh7-z-13" edge="1">
          <mxGeometry relative="1" as="geometry" />
        </mxCell>
        <mxCell id="QIReDwz2trPRNbANh7-z-12" value="publish&lt;div&gt;listen&lt;/div&gt;&lt;div&gt;wait&lt;/div&gt;&lt;div&gt;...&lt;/div&gt;&lt;div&gt;tool_n&lt;/div&gt;" style="text;html=1;align=center;verticalAlign=middle;whiteSpace=wrap;rounded=0;" parent="QIReDwz2trPRNbANh7-z-56" vertex="1">
          <mxGeometry x="65" y="271.09459459459464" width="115" height="100.40540540540542" as="geometry" />
        </mxCell>
        <mxCell id="QIReDwz2trPRNbANh7-z-20" style="edgeStyle=orthogonalEdgeStyle;rounded=0;orthogonalLoop=1;jettySize=auto;html=1;exitX=0.55;exitY=0.95;exitDx=0;exitDy=0;exitPerimeter=0;" parent="QIReDwz2trPRNbANh7-z-56" source="QIReDwz2trPRNbANh7-z-13" edge="1">
          <mxGeometry relative="1" as="geometry">
            <mxPoint x="530" y="451.8243243243243" as="targetPoint" />
            <mxPoint x="560" y="391.5810810810811" as="sourcePoint" />
          </mxGeometry>
        </mxCell>
        <mxCell id="QIReDwz2trPRNbANh7-z-21" value="has sufficient toolset" style="edgeLabel;html=1;align=center;verticalAlign=middle;resizable=0;points=[];" parent="QIReDwz2trPRNbANh7-z-20" vertex="1" connectable="0">
          <mxGeometry x="-0.0686" y="2" relative="1" as="geometry">
            <mxPoint x="5" y="26" as="offset" />
          </mxGeometry>
        </mxCell>
        <mxCell id="QIReDwz2trPRNbANh7-z-22" style="edgeStyle=orthogonalEdgeStyle;rounded=0;orthogonalLoop=1;jettySize=auto;html=1;entryX=0.444;entryY=0;entryDx=0;entryDy=0;entryPerimeter=0;" parent="QIReDwz2trPRNbANh7-z-56" source="QIReDwz2trPRNbANh7-z-13" target="QIReDwz2trPRNbANh7-z-24" edge="1">
          <mxGeometry relative="1" as="geometry">
            <mxPoint x="390" y="431.7432432432432" as="targetPoint" />
          </mxGeometry>
        </mxCell>
        <mxCell id="QIReDwz2trPRNbANh7-z-23" value="need more tools" style="edgeLabel;html=1;align=center;verticalAlign=middle;resizable=0;points=[];" parent="QIReDwz2trPRNbANh7-z-22" vertex="1" connectable="0">
          <mxGeometry x="-0.0416" relative="1" as="geometry">
            <mxPoint as="offset" />
          </mxGeometry>
        </mxCell>
        <mxCell id="QIReDwz2trPRNbANh7-z-13" value="Chairmen AI" style="ellipse;shape=cloud;whiteSpace=wrap;html=1;" parent="QIReDwz2trPRNbANh7-z-56" vertex="1">
          <mxGeometry x="390" y="301.2162162162162" width="120" height="80.32432432432432" as="geometry" />
        </mxCell>
        <mxCell id="QIReDwz2trPRNbANh7-z-17" style="edgeStyle=orthogonalEdgeStyle;rounded=0;orthogonalLoop=1;jettySize=auto;html=1;" parent="QIReDwz2trPRNbANh7-z-56" source="QIReDwz2trPRNbANh7-z-16" target="QIReDwz2trPRNbANh7-z-13" edge="1">
          <mxGeometry relative="1" as="geometry" />
        </mxCell>
        <mxCell id="QIReDwz2trPRNbANh7-z-16" value="Plan creation&lt;div&gt;prompt&lt;/div&gt;" style="rounded=0;whiteSpace=wrap;html=1;" parent="QIReDwz2trPRNbANh7-z-56" vertex="1">
          <mxGeometry x="670" y="301.2162162162162" width="120" height="60.24324324324325" as="geometry" />
        </mxCell>
        <mxCell id="QIReDwz2trPRNbANh7-z-18" value="" style="edgeStyle=orthogonalEdgeStyle;rounded=0;orthogonalLoop=1;jettySize=auto;html=1;" parent="QIReDwz2trPRNbANh7-z-56" target="QIReDwz2trPRNbANh7-z-19" edge="1">
          <mxGeometry relative="1" as="geometry">
            <mxPoint x="190" y="321.2972972972973" as="sourcePoint" />
            <mxPoint x="390" y="341.3783783783784" as="targetPoint" />
          </mxGeometry>
        </mxCell>
        <mxCell id="QIReDwz2trPRNbANh7-z-19" value="tool list prompt" style="rounded=0;whiteSpace=wrap;html=1;" parent="QIReDwz2trPRNbANh7-z-56" vertex="1">
          <mxGeometry x="270" y="298.70608108108104" width="70" height="45.182432432432435" as="geometry" />
        </mxCell>
        <mxCell id="QIReDwz2trPRNbANh7-z-26" style="edgeStyle=orthogonalEdgeStyle;rounded=0;orthogonalLoop=1;jettySize=auto;html=1;" parent="QIReDwz2trPRNbANh7-z-56" source="QIReDwz2trPRNbANh7-z-24" target="QIReDwz2trPRNbANh7-z-25" edge="1">
          <mxGeometry relative="1" as="geometry" />
        </mxCell>
        <mxCell id="QIReDwz2trPRNbANh7-z-24" value="Tool description" style="ellipse;whiteSpace=wrap;html=1;" parent="QIReDwz2trPRNbANh7-z-56" vertex="1">
          <mxGeometry x="340" y="441.7837837837838" width="90" height="40.16216216216216" as="geometry" />
        </mxCell>
        <mxCell id="QIReDwz2trPRNbANh7-z-29" style="edgeStyle=orthogonalEdgeStyle;rounded=0;orthogonalLoop=1;jettySize=auto;html=1;entryX=0.5;entryY=1;entryDx=0;entryDy=0;" parent="QIReDwz2trPRNbANh7-z-56" source="QIReDwz2trPRNbANh7-z-25" target="QIReDwz2trPRNbANh7-z-1" edge="1">
          <mxGeometry relative="1" as="geometry" />
        </mxCell>
        <mxCell id="QIReDwz2trPRNbANh7-z-30" value="tool_new" style="edgeLabel;html=1;align=center;verticalAlign=middle;resizable=0;points=[];" parent="QIReDwz2trPRNbANh7-z-29" vertex="1" connectable="0">
          <mxGeometry x="-0.002" y="1" relative="1" as="geometry">
            <mxPoint as="offset" />
          </mxGeometry>
        </mxCell>
        <mxCell id="QIReDwz2trPRNbANh7-z-25" value="Tool creator AI" style="ellipse;shape=cloud;whiteSpace=wrap;html=1;" parent="QIReDwz2trPRNbANh7-z-56" vertex="1">
          <mxGeometry x="160" y="421.70270270270277" width="120" height="80.32432432432432" as="geometry" />
        </mxCell>
        <mxCell id="QIReDwz2trPRNbANh7-z-33" style="edgeStyle=orthogonalEdgeStyle;rounded=0;orthogonalLoop=1;jettySize=auto;html=1;entryX=0.5;entryY=0;entryDx=0;entryDy=0;" parent="QIReDwz2trPRNbANh7-z-56" source="QIReDwz2trPRNbANh7-z-31" target="QIReDwz2trPRNbANh7-z-32" edge="1">
          <mxGeometry relative="1" as="geometry" />
        </mxCell>
        <mxCell id="QIReDwz2trPRNbANh7-z-31" value="Plan" style="ellipse;whiteSpace=wrap;html=1;" parent="QIReDwz2trPRNbANh7-z-56" vertex="1">
          <mxGeometry x="470" y="451.8243243243243" width="120" height="40.16216216216216" as="geometry" />
        </mxCell>
        <mxCell id="QIReDwz2trPRNbANh7-z-35" style="edgeStyle=orthogonalEdgeStyle;rounded=0;orthogonalLoop=1;jettySize=auto;html=1;entryX=0.5;entryY=0;entryDx=0;entryDy=0;" parent="QIReDwz2trPRNbANh7-z-56" source="QIReDwz2trPRNbANh7-z-32" target="QIReDwz2trPRNbANh7-z-34" edge="1">
          <mxGeometry relative="1" as="geometry" />
        </mxCell>
        <mxCell id="QIReDwz2trPRNbANh7-z-32" value="Plan steps execution (involving tool calling)" style="ellipse;whiteSpace=wrap;html=1;aspect=fixed;" parent="QIReDwz2trPRNbANh7-z-56" vertex="1">
          <mxGeometry x="480" y="522.108108108108" width="100" height="100" as="geometry" />
        </mxCell>
        <mxCell id="QIReDwz2trPRNbANh7-z-34" value="Result" style="ellipse;whiteSpace=wrap;html=1;" parent="QIReDwz2trPRNbANh7-z-56" vertex="1">
          <mxGeometry x="390" y="702.8378378378379" width="120" height="40.16216216216216" as="geometry" />
        </mxCell>
        <mxCell id="QIReDwz2trPRNbANh7-z-57" value="hassle" style="group;align=left;fontStyle=1;fontSize=20;" parent="1" vertex="1" connectable="0">
          <mxGeometry x="940" y="110" width="200" height="565" as="geometry" />
        </mxCell>
        <mxCell id="QIReDwz2trPRNbANh7-z-36" value="Prompt" style="ellipse;whiteSpace=wrap;html=1;" parent="QIReDwz2trPRNbANh7-z-57" vertex="1">
          <mxGeometry x="71" width="120" height="40" as="geometry" />
        </mxCell>
        <mxCell id="QIReDwz2trPRNbANh7-z-40" style="edgeStyle=orthogonalEdgeStyle;rounded=0;orthogonalLoop=1;jettySize=auto;html=1;entryX=0.5;entryY=0;entryDx=0;entryDy=0;" parent="QIReDwz2trPRNbANh7-z-57" source="QIReDwz2trPRNbANh7-z-37" target="QIReDwz2trPRNbANh7-z-39" edge="1">
          <mxGeometry relative="1" as="geometry" />
        </mxCell>
        <mxCell id="QIReDwz2trPRNbANh7-z-37" value="AI_1" style="ellipse;shape=cloud;whiteSpace=wrap;html=1;" parent="QIReDwz2trPRNbANh7-z-57" vertex="1">
          <mxGeometry x="71" y="60" width="120" height="50" as="geometry" />
        </mxCell>
        <mxCell id="QIReDwz2trPRNbANh7-z-38" style="edgeStyle=orthogonalEdgeStyle;rounded=0;orthogonalLoop=1;jettySize=auto;html=1;entryX=0.504;entryY=0.061;entryDx=0;entryDy=0;entryPerimeter=0;" parent="QIReDwz2trPRNbANh7-z-57" source="QIReDwz2trPRNbANh7-z-36" target="QIReDwz2trPRNbANh7-z-37" edge="1">
          <mxGeometry relative="1" as="geometry" />
        </mxCell>
        <mxCell id="QIReDwz2trPRNbANh7-z-42" style="edgeStyle=orthogonalEdgeStyle;rounded=0;orthogonalLoop=1;jettySize=auto;html=1;" parent="QIReDwz2trPRNbANh7-z-57" source="QIReDwz2trPRNbANh7-z-39" target="QIReDwz2trPRNbANh7-z-41" edge="1">
          <mxGeometry relative="1" as="geometry" />
        </mxCell>
        <mxCell id="QIReDwz2trPRNbANh7-z-39" value="Response" style="ellipse;whiteSpace=wrap;html=1;" parent="QIReDwz2trPRNbANh7-z-57" vertex="1">
          <mxGeometry x="71" y="140" width="120" height="40" as="geometry" />
        </mxCell>
        <mxCell id="QIReDwz2trPRNbANh7-z-44" style="edgeStyle=orthogonalEdgeStyle;rounded=0;orthogonalLoop=1;jettySize=auto;html=1;" parent="QIReDwz2trPRNbANh7-z-57" source="QIReDwz2trPRNbANh7-z-41" edge="1">
          <mxGeometry relative="1" as="geometry">
            <mxPoint x="131" y="280" as="targetPoint" />
          </mxGeometry>
        </mxCell>
        <mxCell id="QIReDwz2trPRNbANh7-z-41" value="AI_2" style="ellipse;shape=cloud;whiteSpace=wrap;html=1;" parent="QIReDwz2trPRNbANh7-z-57" vertex="1">
          <mxGeometry x="71" y="210" width="120" height="50" as="geometry" />
        </mxCell>
        <mxCell id="QIReDwz2trPRNbANh7-z-43" value="Response" style="ellipse;whiteSpace=wrap;html=1;" parent="QIReDwz2trPRNbANh7-z-57" vertex="1">
          <mxGeometry x="71" y="282.5" width="120" height="40" as="geometry" />
        </mxCell>
        <mxCell id="QIReDwz2trPRNbANh7-z-45" value="AI_n" style="ellipse;shape=cloud;whiteSpace=wrap;html=1;" parent="QIReDwz2trPRNbANh7-z-57" vertex="1">
          <mxGeometry x="71" y="350" width="120" height="50" as="geometry" />
        </mxCell>
        <mxCell id="QIReDwz2trPRNbANh7-z-46" style="edgeStyle=orthogonalEdgeStyle;rounded=0;orthogonalLoop=1;jettySize=auto;html=1;entryX=0.499;entryY=0.054;entryDx=0;entryDy=0;entryPerimeter=0;" parent="QIReDwz2trPRNbANh7-z-57" source="QIReDwz2trPRNbANh7-z-43" target="QIReDwz2trPRNbANh7-z-45" edge="1">
          <mxGeometry relative="1" as="geometry" />
        </mxCell>
        <mxCell id="qXe0YjweYcS93ouVl-xH-6" style="edgeStyle=orthogonalEdgeStyle;rounded=0;orthogonalLoop=1;jettySize=auto;html=1;entryX=0.5;entryY=0;entryDx=0;entryDy=0;" edge="1" parent="QIReDwz2trPRNbANh7-z-57" source="qXe0YjweYcS93ouVl-xH-1" target="qXe0YjweYcS93ouVl-xH-2">
          <mxGeometry relative="1" as="geometry" />
        </mxCell>
        <mxCell id="qXe0YjweYcS93ouVl-xH-1" value="Facilitator AI" style="ellipse;shape=cloud;whiteSpace=wrap;html=1;" vertex="1" parent="QIReDwz2trPRNbANh7-z-57">
          <mxGeometry x="71" y="425" width="120" height="50" as="geometry" />
        </mxCell>
        <mxCell id="qXe0YjweYcS93ouVl-xH-2" value="Summary" style="ellipse;whiteSpace=wrap;html=1;" vertex="1" parent="QIReDwz2trPRNbANh7-z-57">
          <mxGeometry x="71" y="500" width="120" height="42" as="geometry" />
        </mxCell>
        <mxCell id="qXe0YjweYcS93ouVl-xH-5" style="edgeStyle=orthogonalEdgeStyle;rounded=0;orthogonalLoop=1;jettySize=auto;html=1;entryX=0.5;entryY=0.124;entryDx=0;entryDy=0;entryPerimeter=0;" edge="1" parent="QIReDwz2trPRNbANh7-z-57" source="QIReDwz2trPRNbANh7-z-45" target="qXe0YjweYcS93ouVl-xH-1">
          <mxGeometry relative="1" as="geometry" />
        </mxCell>
        <mxCell id="QIReDwz2trPRNbANh7-z-54" style="edgeStyle=orthogonalEdgeStyle;rounded=0;orthogonalLoop=1;jettySize=auto;html=1;entryX=0.5;entryY=0;entryDx=0;entryDy=0;" parent="1" source="QIReDwz2trPRNbANh7-z-47" target="QIReDwz2trPRNbANh7-z-53" edge="1">
          <mxGeometry relative="1" as="geometry" />
        </mxCell>
        <mxCell id="QIReDwz2trPRNbANh7-z-55" value="yes &amp;gt; 70%" style="edgeLabel;html=1;align=center;verticalAlign=middle;resizable=0;points=[];" parent="QIReDwz2trPRNbANh7-z-54" vertex="1" connectable="0">
          <mxGeometry x="-0.2122" y="-1" relative="1" as="geometry">
            <mxPoint as="offset" />
          </mxGeometry>
        </mxCell>
        <mxCell id="QIReDwz2trPRNbANh7-z-47" value="&quot;are we satisfied?&quot;&lt;div&gt;prompt to all&lt;/div&gt;" style="rounded=0;whiteSpace=wrap;html=1;" parent="1" vertex="1">
          <mxGeometry x="1011" y="710" width="120" height="40" as="geometry" />
        </mxCell>
        <mxCell id="QIReDwz2trPRNbANh7-z-53" value="Prompt" style="ellipse;whiteSpace=wrap;html=1;" parent="1" vertex="1">
          <mxGeometry x="1011" y="805" width="120" height="40" as="geometry" />
        </mxCell>
        <mxCell id="QIReDwz2trPRNbANh7-z-51" style="edgeStyle=orthogonalEdgeStyle;rounded=0;orthogonalLoop=1;jettySize=auto;html=1;" parent="1" source="QIReDwz2trPRNbANh7-z-47" target="QIReDwz2trPRNbANh7-z-37" edge="1">
          <mxGeometry relative="1" as="geometry">
            <Array as="points">
              <mxPoint x="940" y="730" />
              <mxPoint x="940" y="195" />
            </Array>
          </mxGeometry>
        </mxCell>
        <mxCell id="QIReDwz2trPRNbANh7-z-52" value="yes &amp;lt; 70%" style="edgeLabel;html=1;align=center;verticalAlign=middle;resizable=0;points=[];" parent="QIReDwz2trPRNbANh7-z-51" vertex="1" connectable="0">
          <mxGeometry x="0.0279" y="-2" relative="1" as="geometry">
            <mxPoint as="offset" />
          </mxGeometry>
        </mxCell>
        <mxCell id="qXe0YjweYcS93ouVl-xH-7" style="edgeStyle=orthogonalEdgeStyle;rounded=0;orthogonalLoop=1;jettySize=auto;html=1;" edge="1" parent="1" source="qXe0YjweYcS93ouVl-xH-2" target="QIReDwz2trPRNbANh7-z-47">
          <mxGeometry relative="1" as="geometry" />
        </mxCell>
      </root>
    </mxGraphModel>
  </diagram>
</mxfile>
